<svg width="386" height="155" viewBox="0 0 386 155" fill="none" xmlns="http://www.w3.org/2000/svg">
<path d="M262.63 70.8455C262.63 104.329 235.253 131.881 201.984 131.881C168.715 131.881 141.338 104.329 141.338 70.8455C141.338 37.3625 168.715 9.81006 201.984 9.81006C235.253 9.81006 262.63 37.3625 262.63 70.8455ZM258.97 70.8426C258.97 39.3801 233.246 13.4907 201.984 13.4907C170.723 13.4907 144.998 39.3801 144.998 70.8426C144.998 102.305 170.723 128.194 201.984 128.194C233.246 128.194 258.97 102.305 258.97 70.8426Z" fill="black"/>
<path d="M215.637 33.6589C215.637 33.8434 215.682 33.8553 215.773 33.6946L222.191 22.3046C222.508 21.7413 222.951 21.5973 223.519 21.8732C223.556 21.891 223.581 21.9038 223.593 21.9118C224.172 22.2013 224.293 22.6408 223.956 23.23C221.569 27.3917 218.963 31.8906 216.136 36.7266C215.867 37.1908 215.421 37.6877 214.865 37.6193C214.055 37.5181 213.881 36.801 213.884 36.0512C213.903 30.0646 213.949 25.9445 214.02 23.6912C214.031 23.3064 213.944 23.2814 213.756 23.6168C213.197 24.6246 211.26 28.2326 207.947 34.4415C207.501 35.2805 206.628 36.0542 205.801 35.0276C205.617 34.7994 205.526 34.3275 205.526 33.6113C205.522 32.3854 205.399 27.3162 205.159 18.4038C205.141 17.7254 205.475 17.4019 206.158 17.4338L206.324 17.4397C206.788 17.4615 207.159 17.8474 207.167 18.3145L207.385 31.2934C207.391 31.599 207.466 31.6178 207.61 31.35C208.586 29.5329 210.544 25.9236 213.484 20.5223C213.875 19.8082 214.389 19.594 215.028 19.8796C215.619 20.1414 215.646 20.7425 215.643 21.3406C215.627 26.5535 215.625 30.6597 215.637 33.6589Z" fill="black"/>
<path fill-rule="evenodd" clip-rule="evenodd" d="M188.944 20.7228L193.076 35.3896C193.239 35.9696 192.889 36.5815 192.295 36.7553L192.26 36.7655C191.666 36.9393 191.051 36.6095 190.888 36.0295L186.757 21.3627C186.593 20.7827 186.943 20.1707 187.537 19.9969L187.572 19.9867C188.166 19.8129 188.781 20.1428 188.944 20.7228Z" fill="black"/>
<path d="M174.433 28.1973C174.345 28.2488 174.313 28.3612 174.362 28.4472L176.837 32.9045L176.837 32.9051C176.874 32.9723 176.96 32.9961 177.028 32.9583L177.029 32.958L182.285 30.0361C182.851 29.7207 183.327 29.8942 183.713 30.5568C183.717 30.5628 183.722 30.5756 183.728 30.5955C183.935 31.1885 183.78 31.6319 183.264 31.9255L178.126 34.8415L178.124 34.8421C178.037 34.8909 178.005 35.0057 178.055 35.0974L181.206 40.7983C181.494 41.3199 181.341 41.7913 180.748 42.2117C180.742 42.2156 180.728 42.2227 180.707 42.2325C180.056 42.5122 179.563 42.3515 179.228 41.7505L171.911 28.5722C171.513 27.8542 171.67 27.2948 172.381 26.8941L180.6 22.2583C181.209 21.9152 181.71 22.0688 182.102 22.7195C182.108 22.7293 182.119 22.7543 182.135 22.7939C182.363 23.3809 182.205 23.8284 181.659 24.1358L174.433 28.1973Z" fill="black"/>
<path fill-rule="evenodd" clip-rule="evenodd" d="M229.42 27.1099L221.58 40.1699C221.271 40.6859 220.594 40.8451 220.07 40.5251L220.045 40.5093C219.521 40.1893 219.348 39.5105 219.657 38.9945L227.497 25.9345C227.807 25.4185 228.483 25.2593 229.007 25.5793L229.032 25.5951C229.556 25.9151 229.73 26.5939 229.42 27.1099Z" fill="black"/>
<path d="M235.395 41.5893C235.061 42.9997 234.618 45.0001 234.064 47.5908C234.033 47.7357 234.072 47.7583 234.182 47.6592L243.179 39.5749C243.527 39.264 244.054 39.2589 244.406 39.563C244.68 39.799 244.826 39.943 244.843 39.9945C245.029 40.5003 244.93 40.9267 244.548 41.2739C241.678 43.8724 238.008 47.1793 233.538 51.1941C233.139 51.5541 232.618 51.9111 232.101 51.6731C231.788 51.5303 231.584 51.3071 231.489 51.0036C231.44 50.8489 231.457 50.5713 231.542 50.1705C232.415 46.0525 233.077 43.0443 233.526 41.146C233.861 39.7356 234.306 37.7361 234.859 35.1474C234.891 35.0008 234.851 34.977 234.741 35.076L225.745 43.1603C225.397 43.4713 224.87 43.4763 224.518 43.1722C224.244 42.9363 224.098 42.7923 224.08 42.7408C223.895 42.235 223.994 41.8086 224.376 41.4614C227.246 38.8629 230.916 35.556 235.386 31.5412C235.785 31.1812 236.305 30.8241 236.823 31.0621C237.136 31.205 237.34 31.4281 237.435 31.7316C237.484 31.8863 237.466 32.164 237.381 32.5647C236.508 36.6828 235.846 39.691 235.395 41.5893Z" fill="black"/>
<path d="M171.201 49.4879L176.466 42.93C176.902 42.3885 177.386 42.3498 177.918 42.814C177.93 42.8259 177.941 42.8357 177.951 42.8437C178.459 43.3258 178.495 43.8375 178.057 44.3791L172.117 51.7641C171.727 52.2491 171.01 52.3256 170.527 51.9337C166.122 48.3492 162.265 45.2083 158.955 42.5105C157.844 41.603 158.417 41.0228 159.094 40.1688C160.283 38.6692 162.123 36.3772 164.614 33.2925C165.044 32.7629 165.53 32.7162 166.072 33.1527C166.072 33.1548 166.082 33.1637 166.104 33.1795C166.638 33.6237 166.689 34.1167 166.255 34.6583L161.075 41.1239C161.008 41.2075 161.02 41.331 161.102 41.3977L164.945 44.5278C165.056 44.618 165.22 44.6019 165.309 44.4921L168.948 39.9694C169.388 39.422 169.88 39.3663 170.426 39.8028C170.43 39.8067 170.441 39.8156 170.459 39.8296C170.995 40.2679 171.051 40.7529 170.627 41.2846L166.914 45.9382L166.914 45.9388C166.861 46.0052 166.872 46.1025 166.936 46.1542C166.937 46.1545 166.937 46.1551 166.938 46.1554L171.047 49.5058C171.104 49.5513 171.156 49.5453 171.201 49.4879Z" fill="black"/>
<path d="M233.113 76.0702C233.112 76.0753 233.112 76.0801 233.112 76.0851C233.112 76.153 233.166 76.2089 233.234 76.2101C234.424 76.236 235.709 76.3886 237.089 76.6683C237.456 76.7436 237.51 76.9093 237.252 77.1652C237.21 77.2075 237.153 77.2327 237.092 77.2366C235.717 77.3021 234.496 77.1831 233.151 77.7008C233.064 77.7347 232.997 77.8085 232.971 77.9001C232.285 80.1942 231.454 82.8453 230.298 85.0561C230.05 85.5301 229.18 87.0714 227.688 89.68C227.592 89.8457 227.61 90.0552 227.732 90.2036C228.533 91.1736 229.441 92.0871 229.538 92.6019C229.54 92.6108 229.541 92.6197 229.541 92.6286C229.541 92.6974 229.485 92.7536 229.417 92.7536C229.399 92.7536 229.38 92.7497 229.364 92.7417L227.002 91.6408C226.775 91.5337 226.581 91.5774 226.419 91.7717C225.792 92.5254 225.268 93.1196 224.846 93.554C222.176 96.2935 218.874 98.6212 214.942 100.537C213.992 101.002 213.037 101.358 212.077 101.606C211.87 101.659 211.73 101.861 211.746 102.082L211.811 102.959C211.847 103.449 211.707 103.498 211.392 103.105C211.086 102.726 210.749 102.429 210.38 102.213C210.292 102.163 210.198 102.152 210.1 102.18C208.219 102.725 206.276 103.095 204.27 103.29C203.213 103.391 201.964 103.403 200.524 103.325C198.303 103.204 197.053 103.134 196.775 103.114C195.034 102.98 193.467 102.656 191.749 102.064C190.953 101.788 190.016 101.451 188.937 101.052C188.832 101.013 188.712 101.047 188.642 101.135C188.163 101.74 187.74 102.288 187.373 102.778C187.226 102.976 187.124 102.919 187.069 102.605C187.059 102.558 187.059 102.51 187.069 102.463L187.477 100.46C187.522 100.23 187.441 100.06 187.234 99.9512C183.957 98.2591 181.062 96.0793 178.551 93.4112C177.452 92.2448 176.192 90.5875 174.773 88.4392C174.264 87.6677 173.579 86.3317 172.715 84.4313C171.86 82.5427 171.293 81.1514 171.015 80.2567C170.333 78.0549 169.872 75.6379 169.632 73.0055C169.539 71.9858 169.553 70.8165 169.673 69.4975C169.799 68.1148 169.925 66.9347 170.052 65.9567C170.076 65.7707 169.989 65.5868 169.83 65.4895L168.556 64.704C168.035 64.3847 168.077 64.1833 168.68 64.1L170.025 63.9185C170.218 63.8917 170.377 63.7507 170.427 63.5614C171.217 60.5244 172.431 57.5531 174.069 54.647C176.338 50.6182 179.48 47.2658 183.495 44.5899C183.621 44.5054 183.67 44.3412 183.613 44.2002L183.089 42.8939C182.936 42.5131 183.044 42.4089 183.415 42.5815L184.993 43.3165C185.185 43.4057 185.41 43.3911 185.591 43.2778C187.35 42.162 188.964 41.5074 190.643 40.7516C191.463 40.3806 192.194 40.0902 192.837 39.8798C197.597 38.3305 202.429 37.9943 207.332 38.8711C209.102 39.1865 210.919 39.72 212.781 40.4719C214.701 41.2455 216.684 42.2075 218.73 43.3581C219.93 44.0344 220.864 44.6554 221.532 45.2207C223.468 46.8632 224.971 48.2111 226.041 49.2644C226.166 49.3852 226.348 49.4274 226.514 49.3745L228.826 48.6276C228.844 48.6214 228.864 48.6181 228.883 48.6181C228.98 48.6181 229.061 48.6987 229.061 48.7966C229.061 48.8306 229.051 48.8639 229.033 48.8925L227.85 50.8354C227.758 50.9872 227.762 51.1794 227.859 51.3264C229.578 53.9329 230.853 56.5304 231.685 59.1191C232.278 60.9618 232.799 63.1011 233.249 65.5371C233.452 66.6262 233.546 67.8619 233.532 69.2445C233.511 71.6844 233.371 73.9598 233.113 76.0702ZM201.901 39.7816L202.23 39.972C202.316 40.0208 202.419 40.0286 202.51 39.9929C202.883 39.8441 203.306 39.8105 203.779 39.8917C203.787 39.8932 203.796 39.8941 203.805 39.8941C203.889 39.8941 203.958 39.8242 203.958 39.7394C203.958 39.7051 203.947 39.6718 203.927 39.6447L203.829 39.5227C203.786 39.4683 203.707 39.4365 203.616 39.4365L201.192 39.4067C200.729 39.4008 200.654 39.5683 200.967 39.9096C201.062 40.0128 201.268 39.97 201.585 39.7816C201.689 39.72 201.795 39.72 201.901 39.7816ZM205.703 40.2577L206.029 39.8352C206.076 39.7739 206.065 39.6843 206.005 39.6358L205.934 39.5793L205.934 39.579C205.684 39.3832 205.375 39.3561 205.248 39.5195C205.248 39.5198 205.248 39.5198 205.248 39.5198L205.207 39.5704C205.081 39.7343 205.182 40.0295 205.431 40.225L205.502 40.2845C205.527 40.3041 205.558 40.3148 205.59 40.3148C205.635 40.3148 205.676 40.2937 205.703 40.2577ZM207.7 40.0113C207.689 39.8682 207.423 39.77 207.111 39.7944C206.799 39.8185 206.552 39.9563 206.563 40.0994C206.573 40.2425 206.839 40.3407 207.151 40.3163C207.463 40.2922 207.711 40.1544 207.7 40.0113ZM209.612 40.71C209.632 40.579 209.313 40.4204 208.906 40.3586C208.498 40.2967 208.147 40.3532 208.127 40.4838C208.108 40.6147 208.427 40.7733 208.834 40.8352C209.241 40.8971 209.593 40.8406 209.612 40.71ZM195.37 40.6186C195.367 40.5731 195.237 40.543 195.082 40.5526C194.927 40.5618 194.801 40.607 194.804 40.6525C194.806 40.6981 194.936 40.7281 195.092 40.7189C195.247 40.7094 195.373 40.6641 195.37 40.6186ZM193.729 41.2637C193.741 41.2095 193.625 41.1378 193.473 41.1051C193.321 41.0721 193.186 41.0896 193.174 41.1441C193.163 41.1982 193.279 41.2699 193.431 41.3027C193.583 41.3357 193.718 41.3181 193.729 41.2637ZM218.088 53.7186C218.112 53.5975 218.192 53.5014 218.33 53.43C218.73 53.2238 220.291 52.3818 223.01 50.9039C223.018 50.9 223.024 50.8958 223.031 50.8911C223.104 50.8375 223.12 50.7313 223.066 50.656C223.062 50.6501 223.057 50.6444 223.052 50.639C217.616 45.1106 211.005 41.9724 203.22 41.2247C199.824 40.8995 196.6 41.2744 193.546 42.3494C192.734 42.6351 191.776 43.0754 190.673 43.6705C189.949 44.0594 188.989 44.4849 187.79 44.947C187.715 44.9762 187.665 45.0494 187.665 45.1303C187.665 45.1931 187.695 45.2523 187.746 45.2892L195.79 50.9693C195.98 51.1026 196.215 51.1553 196.444 51.1151C197.471 50.9366 198.421 50.8006 199.294 50.7075C202.309 50.3802 204.731 50.8235 207.693 51.8233C211.732 53.1831 215.208 56.462 217.355 60.0296C218.384 61.7413 219.111 63.5724 219.537 65.5223C220.152 68.3311 220.155 71.1973 219.548 74.1213C219.493 74.3843 219.606 74.6551 219.829 74.7997C220.359 75.1428 220.688 75.6575 220.814 76.344C220.843 76.4987 220.981 76.6097 221.136 76.6028L229.825 76.2309C230.002 76.2238 230.152 76.0958 230.189 75.9215C230.967 72.1882 230.994 68.5066 230.269 64.8766C229.482 60.9549 228.036 57.2207 225.751 53.9745C225.648 53.8258 225.533 53.8159 225.405 53.9448L221.63 57.7415C221.54 57.8322 221.418 57.8834 221.29 57.8834C221.118 57.8834 220.957 57.7891 220.873 57.6373C220.11 56.2725 219.209 55.0597 218.171 53.9983C218.099 53.9257 218.068 53.8207 218.088 53.7186ZM188.505 43.2986C188.411 43.1254 188.095 43.1144 187.805 43.2745C187.514 43.4343 187.353 43.7083 187.448 43.8818C187.542 44.055 187.858 44.066 188.148 43.9059C188.439 43.7461 188.6 43.4721 188.505 43.2986ZM215.655 43.4625C215.689 43.3777 215.614 43.2662 215.489 43.2156C215.364 43.1647 215.234 43.1927 215.2 43.2775C215.166 43.3623 215.24 43.4739 215.365 43.5244C215.49 43.5753 215.621 43.5473 215.655 43.4625ZM216.819 44.2442C216.897 44.1877 216.823 43.9496 216.657 43.7166C216.49 43.4837 216.288 43.3382 216.211 43.3947C216.133 43.4509 216.207 43.689 216.374 43.922C216.541 44.1549 216.742 44.3004 216.819 44.2442ZM217.941 44.8411V44.8408C218.045 44.7845 218.059 44.6021 217.971 44.4367C217.882 44.2713 217.724 44.1814 217.62 44.2377C217.516 44.2939 217.502 44.4766 217.59 44.642C217.678 44.8075 217.837 44.8973 217.941 44.8411ZM186.293 45.1249C186.31 45.0416 186.234 44.9547 186.124 44.9321C186.014 44.9098 185.91 44.9598 185.893 45.0428C185.877 45.1261 185.953 45.213 186.063 45.2356C186.172 45.2579 186.276 45.2079 186.293 45.1249ZM220.332 45.9081C220.342 45.9048 220.351 45.9024 220.361 45.9009C220.464 45.8849 220.562 45.9581 220.578 46.0628C220.579 46.0726 220.58 46.0827 220.58 46.0925C220.578 46.3702 220.604 46.5805 220.657 46.7233C220.803 47.1122 220.931 47.0991 221.041 46.6847C221.079 46.5418 221.012 46.3553 220.84 46.1253C220.588 45.792 220.206 45.548 219.693 45.3933C219.678 45.3889 219.662 45.3868 219.646 45.3868C219.552 45.3868 219.475 45.4644 219.475 45.5594C219.475 45.5778 219.478 45.5959 219.483 45.6135C219.537 45.7721 219.616 45.8911 219.723 45.9706C219.806 46.0339 219.897 46.05 219.998 46.0182L220.332 45.9081ZM182.232 46.6311C182.149 46.6192 182.084 46.6272 182.037 46.6549C181.891 46.7361 181.793 46.7998 181.741 46.8453C180.74 47.738 179.818 48.7059 178.974 49.7494C178.602 50.2097 178.678 50.3037 179.202 50.0321C179.505 49.8735 179.825 49.6661 180.16 49.4102C180.633 49.0502 181.02 48.2527 181.301 47.8481C181.356 47.7668 181.429 47.7061 181.52 47.6666C181.849 47.5217 182.084 47.3928 182.226 47.2798C182.305 47.2164 182.359 47.142 182.389 47.0566C182.397 47.0289 182.407 46.9307 182.418 46.762C182.424 46.6668 182.475 46.6162 182.569 46.6103C182.993 46.5844 183.244 46.41 183.323 46.0866C183.384 45.8387 183.293 45.7495 183.048 45.8188C182.553 45.9637 182.33 46.1839 182.377 46.4794C182.397 46.5963 182.348 46.6469 182.232 46.6311ZM195.131 92.5215L190.968 98.4903C190.941 98.5296 190.926 98.5769 190.926 98.6251C190.926 98.7238 190.988 98.8122 191.081 98.8444C193.373 99.6358 195.717 100.192 198.114 100.514C200.095 100.779 201.921 100.839 203.592 100.692C205.449 100.531 207.287 100.202 209.106 99.7043C209.118 99.7013 209.13 99.6971 209.141 99.6927C209.286 99.6337 209.355 99.4644 209.296 99.3178C209.292 99.3064 209.287 99.2954 209.281 99.2847L205.833 93.0779C205.765 92.9547 205.729 92.8158 205.729 92.6745C205.729 92.293 205.991 91.9586 206.36 91.8699L209.355 91.1498C209.747 91.0567 209.97 91.2114 210.026 91.614L211.001 98.889C211.002 98.8923 211.002 98.8955 211.003 98.8988C211.017 98.9643 211.083 99.0065 211.149 98.9922C211.152 98.9916 211.155 98.9911 211.158 98.9902C212.831 98.4644 214.444 97.7931 215.995 96.9758C219.144 95.3155 221.843 93.0253 224.09 90.1055C224.208 89.9507 224.184 89.8228 224.019 89.7216L217.937 85.9726C217.926 85.9654 217.914 85.9577 217.903 85.9496C217.72 85.8116 217.683 85.5456 217.821 85.3599C217.829 85.3495 217.837 85.3394 217.846 85.3299L220.075 82.8691C220.264 82.6588 220.458 82.6549 220.657 82.8573L225.447 87.6745C225.452 87.6799 225.457 87.6849 225.463 87.6897C225.551 87.7623 225.683 87.7483 225.756 87.6587C225.761 87.6534 225.765 87.6477 225.769 87.6418C227.529 84.96 228.941 81.8515 230.005 78.3167C230.016 78.2828 230.021 78.2477 230.021 78.2123C230.021 78.0147 229.859 77.8522 229.663 77.8522C229.658 77.8522 229.653 77.8522 229.648 77.8525C226.001 77.9992 222.266 78.3494 218.443 78.9029C217.97 78.9722 217.672 79.1001 217.55 79.2867C214.93 83.2658 211.404 86.0907 206.972 87.7608C204.686 88.6237 202.543 88.5047 199.811 88.4452C199.155 88.4312 198.285 88.2845 197.201 88.0048C194.593 87.3302 192.206 86.2522 190.04 84.7705C189.847 84.6381 189.636 84.5916 189.472 84.6455L180.659 87.49C180.424 87.565 180.182 87.4894 180.089 87.3115C180.079 87.2937 180.113 87.2321 180.192 87.127C180.251 87.0458 180.302 86.994 180.346 86.9723C182.362 85.8991 184.585 84.9133 187.016 84.0147C187.412 83.868 187.828 83.6823 188.263 83.4583C188.327 83.4244 188.368 83.3574 188.368 83.2845C188.368 83.2295 188.345 83.1771 188.305 83.1399C186.491 81.4656 185.091 79.3998 184.104 76.942C181.691 70.9337 182.14 65.1295 185.449 59.5297C186.097 58.4368 186.962 57.2704 188.045 56.0306C188.224 55.8267 188.273 55.5378 188.172 55.2867L184.857 47.0417C184.811 46.9251 184.698 46.848 184.572 46.848C184.511 46.848 184.45 46.8668 184.399 46.9019C178.844 50.7729 174.758 56.4918 173.366 63.2014C173.364 63.21 173.362 63.219 173.362 63.2279C173.35 63.3496 173.442 63.4594 173.564 63.4713C173.573 63.4719 173.582 63.4725 173.59 63.4722L178.859 63.3829C178.86 63.3829 178.861 63.3829 178.862 63.3829C179.036 63.3829 179.179 63.5266 179.179 63.7013C179.179 63.7174 179.178 63.7331 179.175 63.7489L178.451 68.343C178.441 68.4096 178.383 68.4593 178.316 68.4593C178.3 68.4593 178.283 68.4561 178.268 68.4501L172.842 66.4208C172.82 66.4125 172.796 66.4083 172.771 66.4083C172.671 66.4083 172.584 66.4818 172.567 66.5815C172.234 68.5989 172.135 70.4547 172.269 72.1486C172.603 76.4184 173.437 80.2329 175.267 84.1575C175.466 84.5821 175.767 85.1165 176.171 85.7613C176.922 86.9574 177.836 88.5255 178.702 89.6294C181.28 92.9122 184.545 95.5377 188.497 97.5054C188.502 97.5078 188.507 97.5099 188.512 97.5119C188.625 97.5575 188.754 97.5024 188.799 97.3903C188.801 97.3852 188.803 97.3798 188.804 97.3745L190.942 90.6767C191.012 90.4548 191.218 90.303 191.449 90.303C191.526 90.303 191.602 90.32 191.672 90.3524L194.96 91.8877C195.11 91.9577 195.207 92.11 195.207 92.2769C195.207 92.3644 195.181 92.4498 195.131 92.5215ZM222.614 47.9433V47.6666C222.614 47.6663 222.614 47.666 222.614 47.6657C222.614 47.5318 222.505 47.4217 222.372 47.4217C222.335 47.4217 222.299 47.43 222.265 47.4464C222.092 47.5318 222.035 47.6615 222.094 47.8362C222.181 48.09 222.238 48.3351 222.265 48.5711C222.279 48.6842 222.338 48.7645 222.443 48.8121C222.727 48.9392 222.943 49.1394 223.093 49.4132C223.138 49.4944 223.206 49.5491 223.294 49.5768C223.852 49.7574 224.268 50.1064 224.542 50.6242C224.607 50.7453 224.674 50.7462 224.743 50.6271L224.947 50.2731C224.979 50.2156 224.966 50.171 224.908 50.1392L223.51 49.3269C223.431 49.2793 223.371 49.2138 223.33 49.1305C223.127 48.716 222.926 48.4104 222.727 48.214C222.652 48.1406 222.614 48.0504 222.614 47.9433ZM189.948 48.2111C189.962 48.3837 190.069 48.4482 190.268 48.4045C190.31 48.3941 190.34 48.3557 190.34 48.3119C190.34 48.2929 190.335 48.2744 190.324 48.2587C190.265 48.1694 190.187 48.1129 190.09 48.0891C190.082 48.087 190.073 48.0858 190.063 48.0858C190 48.0858 189.948 48.1382 189.948 48.2018C189.948 48.2048 189.948 48.2081 189.948 48.2111ZM188.311 48.8062C188.279 48.7833 188.241 48.7711 188.201 48.7711C188.097 48.7711 188.012 48.857 188.012 48.9615C188.012 48.9868 188.017 49.0121 188.027 49.0353L190.04 54.034C190.069 54.106 190.139 54.1536 190.216 54.1536C190.252 54.1536 190.288 54.1429 190.318 54.1233L192.926 52.3827C192.979 52.3475 193.01 52.2877 193.01 52.2241C193.01 52.1616 192.98 52.1027 192.929 52.0673L188.311 48.8062ZM225.733 51.4662C225.844 51.5138 225.937 51.6001 226.014 51.7251C226.028 51.7489 226.048 51.7587 226.073 51.7548L226.236 51.731C226.291 51.7251 226.301 51.7013 226.266 51.6596C225.714 51.0309 225.121 50.9434 224.489 51.3978C224.417 51.4484 224.375 51.5311 224.375 51.6189C224.375 51.7364 224.451 51.8411 224.563 51.8768C224.89 51.9839 225.186 51.8709 225.452 51.5376C225.529 51.4424 225.623 51.4186 225.733 51.4662ZM222.502 53.1265C222.466 53.0611 222.436 53.0215 222.41 53.0075C222.282 52.9301 222.237 52.9638 222.274 53.1087C222.32 53.2833 222.318 53.4529 222.268 53.6175C222.229 53.7523 222.14 53.8088 222.002 53.7871L221.473 53.7008C221.305 53.6749 221.23 53.7463 221.245 53.915C221.296 54.5131 222.124 54.7481 222.567 54.4357C222.719 54.3307 222.962 54.2414 223.297 54.1679C223.378 54.1486 223.448 54.1037 223.498 54.04C223.614 53.8891 223.651 53.7148 223.608 53.5163C223.584 53.4151 223.608 53.3268 223.679 53.2515C223.964 52.9519 224.291 52.7954 224.657 52.7814C225.207 52.7614 225.236 52.6436 224.743 52.4273C224.698 52.4074 224.42 52.3818 223.909 52.3499C223.803 52.344 223.719 52.3836 223.658 52.4689C223.544 52.6296 223.463 52.8001 223.415 52.9807C223.392 53.0759 223.334 53.1393 223.241 53.1712C223.095 53.2247 222.906 53.2446 222.673 53.2307C222.599 53.2268 222.541 53.192 222.502 53.1265ZM214.283 69.548C214.326 69.9111 214.219 70.2205 213.961 70.4764C213.535 70.8989 213.168 71.2194 212.861 71.4375C210.604 73.0442 208.931 74.2612 207.841 75.0883C207.689 75.2035 207.707 75.3124 207.894 75.4156C207.92 75.4275 207.948 75.4356 207.977 75.4394C209.463 75.5942 210.601 75.7081 211.392 75.7816C212.323 75.8679 213.236 75.0794 213.952 74.7908C214.931 74.396 215.969 74.1621 217.065 74.0886C217.279 74.0764 217.463 73.9255 217.517 73.7167C217.805 72.6434 217.962 71.6844 217.987 70.8394C218.041 69.2187 217.937 67.6815 217.677 66.2274C217.023 62.5438 215.301 59.4651 212.512 56.9916C210.149 54.8948 207.471 53.4985 204.479 52.8022C203.413 52.5561 202.384 52.455 201.393 52.4987C200.66 52.5323 199.63 52.6534 198.303 52.8617C198.245 52.8724 198.201 52.9245 198.201 52.9846C198.201 53.0224 198.218 53.0581 198.247 53.0819C199.258 53.8713 200.607 55.024 202.295 56.5394C202.334 56.5772 203.55 57.6522 205.943 59.7648C208.627 62.1353 211.216 64.9956 213.709 68.346C214.052 68.8081 214.244 69.2088 214.283 69.548ZM196.684 53.6675C196.767 53.6496 196.807 53.5089 196.774 53.3556C196.742 53.2024 196.647 53.0911 196.564 53.1093C196.482 53.1271 196.441 53.2679 196.474 53.4211C196.507 53.5743 196.602 53.6856 196.684 53.6675ZM227.811 54.0037C227.884 53.9611 227.888 53.8296 227.821 53.7124C227.753 53.5952 227.638 53.5339 227.565 53.5764C227.492 53.619 227.487 53.7505 227.555 53.8677C227.622 53.9849 227.738 54.0462 227.811 54.0037ZM207.465 66.9445C207.672 67.4563 207.46 68.0633 207.111 68.4055C206.174 69.3258 205.077 69.5948 203.817 69.2118C203.72 69.1821 203.627 69.1871 203.536 69.2267C202.809 69.5442 202.258 70.0649 201.884 70.7888C201.837 70.8781 201.828 70.9834 201.86 71.0804C202.333 72.4946 203.089 73.5658 204.128 74.2939C204.299 74.4138 204.526 74.4174 204.698 74.3028L211.427 69.8129C211.657 69.6596 211.724 69.3457 211.578 69.1107C211.06 68.2814 210.426 67.4801 209.677 66.7065C205.431 62.3287 201.473 58.6885 197.801 55.7866C196.938 55.1043 196.044 54.4923 195.119 53.9507C194.953 53.8516 194.745 53.8493 194.575 53.9448L191.205 55.8401C190.975 55.9696 190.857 56.2394 190.918 56.4977L191.77 60.0891C191.77 60.0903 191.77 60.0918 191.771 60.093C191.815 60.2703 191.998 60.3789 192.176 60.3337C192.176 60.3334 192.177 60.3334 192.178 60.3331C192.84 60.1626 193.263 60.0555 193.446 60.0117C194.88 59.6755 196.734 59.7529 197.969 60.6395C199.238 61.553 199.962 62.8205 199.173 64.347C198.738 65.192 197.892 65.8258 197.014 66.5309C196.906 66.6178 196.843 66.7499 196.843 66.8895C196.843 67.0778 196.958 67.248 197.133 67.3165C197.821 67.5902 198.422 67.5039 199.152 67.4652C200.281 67.4057 201.431 67.265 202.602 67.0427C203.182 66.9356 203.27 66.6857 203.554 66.1828C204.586 64.344 206.839 65.3973 207.465 66.9445ZM189.174 54.6202C189.173 54.6229 189.172 54.6259 189.172 54.6285C189.166 54.6607 189.187 54.6916 189.217 54.6967C189.221 54.6973 189.224 54.6976 189.227 54.6976C189.304 54.6976 189.325 54.6669 189.289 54.6053C189.242 54.5199 189.203 54.525 189.174 54.6202ZM221.095 55.0903L221.517 55.3343C221.651 55.4117 221.694 55.3769 221.645 55.2302C221.582 55.0457 221.52 54.9267 221.458 54.8731C221.384 54.8056 221.299 54.7928 221.204 54.8344C220.942 54.9475 220.772 55.0219 220.696 55.0576C220.467 55.1686 220.47 55.1995 220.704 55.1498C220.744 55.1418 220.789 55.1222 220.84 55.0903C220.925 55.0406 221.01 55.0406 221.095 55.0903ZM229.827 58.6609C229.935 58.7013 230.068 58.6133 230.122 58.4663C230.177 58.3193 230.132 58.1655 230.024 58.1253C229.916 58.0848 229.783 58.1729 229.729 58.3199C229.675 58.4669 229.719 58.6207 229.827 58.6609ZM187.512 61.8357C188.295 61.7524 188.976 61.5411 189.555 61.2019C189.747 61.0909 189.816 60.9273 189.765 60.711L189.212 58.3812C189.187 58.2711 189.088 58.1925 188.976 58.1925C188.907 58.1925 188.841 58.2223 188.795 58.2741C187.835 59.3452 187.02 60.5681 186.348 61.9428C186.223 62.1966 186.292 62.2751 186.554 62.1778C186.838 62.0767 187.163 61.8714 187.512 61.8357ZM173.247 59.2149C173.366 59.1596 173.411 58.998 173.347 58.8572C173.282 58.7165 173.131 58.6463 173.012 58.7019H173.011C172.892 58.7573 172.847 58.9188 172.912 59.0596C172.976 59.2003 173.128 59.2705 173.247 59.2149ZM230.978 61.9874C230.854 62.2156 230.901 62.3891 231.12 62.5081C231.14 62.5191 231.163 62.5248 231.186 62.5248C231.262 62.5248 231.325 62.4617 231.325 62.3849C231.325 62.3796 231.325 62.3739 231.324 62.3683C231.31 62.2174 231.256 62.0657 231.161 61.913C231.112 61.8339 231.11 61.7336 231.155 61.6512C231.532 60.9707 231.419 60.4372 230.815 60.0504C230.727 59.9948 230.674 59.9156 230.656 59.8124C230.628 59.6457 230.604 59.5416 230.582 59.4999C230.32 58.992 230.125 58.9971 229.997 59.5148C229.869 60.0245 230.055 60.475 230.555 60.8657C230.632 60.9252 230.657 61.0025 230.629 61.0978C230.562 61.3337 230.663 61.556 230.931 61.7643C231.011 61.8259 231.027 61.9002 230.978 61.9874ZM195.876 62.6182C195.742 62.8958 195.686 63.1062 195.708 63.249C195.709 63.2597 195.711 63.2704 195.714 63.2811C195.761 63.4662 195.941 63.5823 196.114 63.5382C196.125 63.5355 196.135 63.5326 196.145 63.5287C196.64 63.3481 197.005 63.0645 197.239 62.6777C197.297 62.5795 197.269 62.4528 197.177 62.3921C196.956 62.2433 196.675 62.1413 196.334 62.0856C196.208 62.0639 196.118 62.1115 196.062 62.2284C196.005 62.3454 195.943 62.4754 195.876 62.6182ZM231.775 63.906C231.935 63.8331 231.979 63.5787 231.872 63.3424C231.765 63.1062 231.547 62.9714 231.387 63.0443C231.228 63.1172 231.184 63.3716 231.29 63.6079C231.397 63.8441 231.616 63.9789 231.775 63.906ZM186.552 66.2929C186.613 65.8763 186.813 65.5142 187.152 65.2069C187.325 65.0483 187.833 64.6972 188.674 64.1535C188.711 64.1297 188.743 64.0988 188.768 64.0625C188.873 63.911 188.834 63.6992 188.682 63.593C188.647 63.5683 188.607 63.5504 188.565 63.5406C188.086 63.4305 187.589 63.6775 187.14 64.0345C186.546 64.5026 185.958 64.8388 185.375 65.0432C185.221 65.0953 185.103 65.2211 185.058 65.3794C183.811 69.8962 184.405 74.1838 186.841 78.2423C187.793 79.8232 188.896 81.18 190.15 82.3127C190.321 82.4687 190.565 82.5186 190.785 82.4437C191.844 82.0807 192.572 81.8346 192.97 81.7058C193.345 81.5867 193.736 81.316 194.144 80.8935C195.094 79.9116 195.693 79.2956 195.941 79.0457C196.001 78.985 196.034 78.9029 196.034 78.8175C196.034 78.6818 195.949 78.5598 195.823 78.5131C192.911 77.4628 191.223 73.9844 192.417 70.9733C192.431 70.9376 192.631 70.405 193.017 69.3755C193.201 68.8854 193.178 68.4462 192.949 68.0573C192.809 67.8172 192.511 67.6518 192.053 67.5604C191.413 67.4355 191.055 67.3471 190.98 67.2956C190.31 66.8315 189.695 66.7987 189.135 67.1974C188.458 67.6774 187.782 68.1654 187.11 68.6614C186.988 68.7506 186.852 68.822 186.702 68.8756C186.288 69.0244 186.198 68.9113 186.43 68.5364C186.7 68.0981 187.055 67.6488 187.495 67.1885C187.506 67.1745 188.018 66.7461 189.029 65.9031C189.125 65.8243 189.156 65.6895 189.106 65.5758C188.986 65.3021 188.781 65.2595 188.491 65.4479C187.858 65.8585 187.277 66.1888 186.747 66.4387C186.729 66.447 186.709 66.4512 186.689 66.4512C186.613 66.4512 186.55 66.3881 186.55 66.3113C186.55 66.3051 186.551 66.2991 186.552 66.2929ZM192.949 63.8322C192.9 63.9194 192.881 63.9929 192.893 64.0524C192.929 64.2211 192.985 64.23 193.062 64.0792C193.101 64.0039 193.099 63.9224 193.056 63.8352C193.045 63.8155 193.024 63.8033 193.002 63.8033C192.98 63.8033 192.961 63.8144 192.949 63.8322ZM231.773 65.5996C231.746 65.7305 231.691 65.8159 231.611 65.8555C231.364 65.9745 231.379 66.0796 231.655 66.1709C231.9 66.2503 232.031 66.3545 232.048 66.4833C232.064 66.5824 232.037 66.6699 231.968 66.7452L231.747 66.9921C231.658 67.09 231.665 67.2427 231.761 67.3304C231.761 67.3307 231.761 67.331 231.762 67.3313L231.889 67.4504C231.975 67.5277 232.047 67.5167 232.104 67.4176C232.45 66.8264 232.478 66.2274 232.19 65.6204C232.149 65.5371 232.136 65.4488 232.152 65.3556L232.235 64.8201C232.254 64.6972 232.207 64.6088 232.093 64.5552L231.694 64.3678C231.668 64.3559 231.64 64.3499 231.612 64.3499C231.514 64.3499 231.43 64.4225 231.416 64.5195L231.309 65.195C231.291 65.3101 231.339 65.3765 231.451 65.3943L231.658 65.427C231.757 65.4428 231.795 65.5005 231.773 65.5996ZM218.703 71.8987C218.632 72.1864 218.502 73.1058 218.313 74.6569C218.309 74.6923 218.311 74.7274 218.319 74.761C218.364 74.9515 218.438 75.0101 218.54 74.9366C218.572 74.9149 218.596 74.8821 218.614 74.8384C218.782 74.4477 218.885 74.0826 218.925 73.7434C219.211 71.3393 219.232 68.8348 218.99 66.2304C218.946 65.7505 218.804 65.3922 218.564 65.1563C218.487 65.0789 218.443 65.0947 218.431 65.2039C218.417 65.3565 218.458 65.8287 218.552 66.6202C218.602 67.0457 218.505 67.4504 218.611 67.8967C218.694 68.2418 218.735 68.5542 218.735 68.8339C218.737 69.5936 218.755 70.1113 218.789 70.3871C218.854 70.895 218.825 71.3988 218.703 71.8987ZM174.322 65.4211C174.327 65.3479 174.083 65.2714 173.782 65.2518C173.481 65.2322 173.23 65.2765 173.225 65.3497C173.22 65.4229 173.464 65.4993 173.765 65.519C174.066 65.5386 174.318 65.4943 174.322 65.4211ZM174.693 65.4508C175.172 65.8139 175.571 65.2247 176.095 65.7365C176.114 65.7549 176.139 65.7651 176.166 65.7651C176.206 65.7651 176.244 65.741 176.26 65.7038L176.301 65.6145C176.338 65.5318 176.311 65.4339 176.236 65.3854C176.067 65.2744 175.849 65.2566 175.583 65.3318C175.488 65.3577 175.396 65.3518 175.305 65.314C175.102 65.2286 174.91 65.2128 174.729 65.2664C174.595 65.3042 174.583 65.3655 174.693 65.4508ZM171.492 65.7499C171.533 65.7061 171.463 65.5702 171.336 65.4485C171.209 65.3268 171.071 65.2628 171.03 65.3065C170.988 65.3503 171.059 65.4863 171.185 65.6079C171.312 65.7296 171.451 65.7936 171.492 65.7499ZM171.128 66.2989C171.084 66.3783 171.09 66.4387 171.145 66.4804C171.21 66.528 171.264 66.517 171.305 66.4476C171.343 66.3881 171.346 66.3346 171.314 66.287C171.294 66.2575 171.26 66.2402 171.224 66.2402C171.184 66.2402 171.147 66.2628 171.128 66.2989ZM170.896 68.337C171.005 68.3367 171.093 68.1067 171.092 67.8276C171.091 67.5485 171.001 67.3191 170.892 67.3194C170.784 67.3197 170.695 67.5497 170.696 67.8288C170.697 68.1079 170.787 68.3373 170.896 68.337ZM231.788 69.3755C231.926 69.5519 232.105 69.6641 232.326 69.7117C232.334 69.7132 232.342 69.7141 232.35 69.7141C232.422 69.7141 232.481 69.6549 232.481 69.5832C232.481 69.5638 232.476 69.5448 232.468 69.5272C232.279 69.1484 232.17 68.7723 232.143 68.3995C232.139 68.3638 232.122 68.3391 232.093 68.3251C232.039 68.2975 232.008 68.3141 231.998 68.3757C231.965 68.6277 231.92 68.8012 231.865 68.8964C231.737 69.1166 231.711 69.2764 231.788 69.3755ZM200.828 68.6108C200.828 68.6358 200.845 68.6587 200.87 68.6673C200.917 68.6831 200.949 68.6742 200.967 68.6405C200.985 68.6048 200.975 68.5801 200.938 68.5661C200.865 68.5385 200.828 68.5534 200.828 68.6108ZM196.352 73.9339C196.212 74.1026 196.137 74.3058 196.127 74.5438C196.124 74.6349 196.075 74.7188 195.997 74.767C195.867 74.8524 195.779 74.8929 195.734 74.889C195.212 74.8256 195.148 74.9714 195.542 75.3264C195.609 75.388 195.739 75.4028 195.932 75.371C196.263 75.3175 196.742 74.883 197.017 74.6807C197.404 74.393 197.789 74.3921 198.173 74.6777C198.414 74.8563 198.738 75.2797 199.146 75.9482C199.197 76.0336 199.272 76.0872 199.371 76.1089C199.67 76.1744 199.919 76.086 200.116 75.8441C200.185 75.7587 200.27 75.7361 200.373 75.7757C200.458 75.8093 200.541 75.8658 200.621 75.9453C200.624 75.9482 200.627 75.9509 200.63 75.9536C200.689 76.0024 200.777 75.9947 200.824 75.9369C200.827 75.934 200.829 75.9307 200.831 75.9274L200.899 75.8292C200.976 75.72 200.973 75.6129 200.89 75.5079C200.679 75.238 200.449 75.1785 200.198 75.3293C200.114 75.3808 200.024 75.3909 199.929 75.3591C199.845 75.3294 199.773 75.2698 199.714 75.1806C199.651 75.0833 199.664 75 199.755 74.9306C199.956 74.778 200.086 74.5429 200.145 74.2255C200.167 74.1163 200.22 74.0282 200.305 73.9606L200.87 73.5024C201.224 73.2147 201.182 73.0948 200.742 73.1424C200.703 73.1483 200.551 73.0255 200.287 72.7734C200.268 72.7556 200.245 72.7416 200.222 72.7318L199.696 72.5354C199.632 72.5116 199.59 72.4503 199.59 72.3819C199.59 72.3485 199.6 72.3158 199.619 72.2884L199.776 72.0653C199.878 71.9186 200.009 71.8847 200.169 71.9641C200.512 72.1328 200.775 72.4194 200.958 72.824C201.017 72.9529 201.074 72.952 201.13 72.821C201.213 72.6247 201.177 72.4482 201.023 72.2914C200.564 71.8213 200.318 71.3422 200.284 70.8543C200.28 70.7888 200.298 70.7236 200.334 70.6698L200.394 70.5835L200.394 70.5832C200.445 70.5118 200.427 70.4097 200.355 70.3574L199.882 70.0301C199.864 70.0182 199.861 70.0012 199.87 69.9795L199.9 69.9111C199.912 69.8846 199.938 69.8673 199.967 69.8673C199.979 69.8673 199.99 69.87 200 69.8753C200.204 69.9765 200.386 70.0182 200.547 70.0003C200.656 69.9884 200.706 69.9268 200.698 69.8158C200.688 69.6492 200.604 69.4796 200.444 69.307C200.373 69.2297 200.284 69.191 200.178 69.191C199.826 69.194 199.717 69.1642 199.347 69.0095C199.037 68.8807 198.721 68.8557 198.398 68.9351C198.286 68.9616 198.207 69.0628 198.207 69.1782C198.207 69.2401 198.23 69.2999 198.271 69.3457L198.759 69.8991C198.8 69.9468 198.791 69.9795 198.732 69.9973L198.611 70.036C198.567 70.0518 198.53 70.042 198.499 70.0063C198.083 69.5519 197.597 69.4091 197.041 69.5778C196.927 69.6114 196.883 69.5698 196.911 69.4528C196.978 69.1612 196.985 68.933 196.932 68.7685C196.894 68.6515 196.824 68.6265 196.722 68.6941L196.441 68.8815C196.34 68.9491 196.309 69.0413 196.346 69.1583L196.45 69.4856C196.485 69.5948 196.451 69.673 196.346 69.7206C196.175 69.798 196.025 69.7346 195.897 69.5302C195.824 69.4133 195.782 69.3249 195.773 69.2654C195.755 69.1621 195.695 69.1017 195.592 69.0839C195.376 69.0443 195.235 69.058 195.173 69.1255C195.05 69.2505 195.071 69.3418 195.235 69.3993C195.668 69.5519 195.903 69.7733 195.938 70.0628C195.939 70.0688 195.939 70.0747 195.939 70.081C195.939 70.1562 195.88 70.2193 195.805 70.2235C195.344 70.2473 194.965 70.4594 194.667 70.8602C194.582 70.9733 194.533 70.9593 194.519 70.8186C194.492 70.5308 194.577 70.2571 194.776 69.9973C194.781 69.9917 194.785 69.9854 194.788 69.9792C194.838 69.895 194.809 69.7837 194.724 69.7331C194.718 69.7295 194.712 69.7266 194.705 69.7236C194.55 69.6522 194.387 69.6552 194.218 69.7325C194.141 69.7661 194.096 69.8248 194.085 69.9081L193.863 71.3214C193.814 71.635 193.993 71.943 194.289 72.0534L194.782 72.2379C194.94 72.2974 194.956 72.3837 194.83 72.4967L194.578 72.7229C194.535 72.7618 194.478 72.7836 194.42 72.7836C194.347 72.7836 194.278 72.7502 194.232 72.6931C194.047 72.4589 193.813 72.4601 193.532 72.6961C193.517 72.708 193.509 72.7258 193.509 72.7446C193.509 72.7749 193.531 72.8014 193.561 72.8062C194.022 72.8776 194.406 73.0778 194.711 73.4072C194.977 73.6908 194.919 73.8 194.537 73.7345C194.291 73.6908 194.08 73.6801 193.904 73.7018C193.863 73.7077 193.825 73.7473 193.792 73.8208C193.739 73.9377 193.774 74.0091 193.898 74.035C194.15 74.0865 194.279 74.3007 194.283 74.6777C194.285 74.7313 194.325 74.7765 194.377 74.7848L194.495 74.8057C194.5 74.8063 194.504 74.8066 194.508 74.8066C194.556 74.8066 194.597 74.7664 194.597 74.7173C194.597 74.714 194.596 74.7108 194.596 74.7075C194.569 74.4516 194.62 74.2484 194.75 74.0975C194.819 74.0181 194.906 73.9883 195.01 74.0082C195.317 74.0698 195.619 74.0062 195.915 73.8178C195.994 73.7681 196.078 73.7544 196.169 73.7762C196.22 73.7901 196.266 73.7919 196.305 73.7821C196.456 73.7366 196.472 73.7872 196.352 73.9339ZM201.893 69.2713C201.893 69.271 201.893 69.271 201.893 69.271C201.95 69.2565 201.964 69.1184 201.925 68.9652C201.885 68.8116 201.807 68.6974 201.75 68.7122C201.694 68.7268 201.679 68.8649 201.718 69.0184C201.758 69.1717 201.836 69.2859 201.893 69.2713ZM232.128 70.3633C232.085 70.266 232.04 70.2651 231.995 70.3603C231.95 70.4576 231.956 70.5755 232.013 70.7144C232.042 70.7858 232.084 70.7939 232.137 70.7382C232.21 70.6629 232.207 70.538 232.128 70.3633ZM170.693 72.1843C170.636 72.6387 170.721 73.0829 170.947 73.5173C170.993 73.6033 171.004 73.7033 170.98 73.797C170.893 74.1302 170.995 74.3504 171.284 74.4575C171.509 74.5429 171.568 74.4763 171.462 74.2582C171.137 73.5896 171.001 72.8597 171.057 72.0683C171.078 71.7371 171.077 71.5505 171.051 71.5089C170.818 71.1399 170.663 71.1747 170.584 71.613C170.574 71.6645 170.596 71.7579 170.652 71.8927C170.691 71.9858 170.705 72.0831 170.693 72.1843ZM231.978 72.5181C232.053 72.5416 232.191 72.3119 232.284 72.0096C232.378 71.7073 232.394 71.4392 232.319 71.416C232.245 71.3925 232.107 71.6222 232.013 71.9245C231.92 72.2268 231.904 72.4949 231.978 72.5181ZM232.001 73.8714C232.057 73.9017 232.203 73.7414 232.324 73.5161C232.446 73.2909 232.5 73.0805 232.444 73.0502C232.389 73.0198 232.243 73.1802 232.121 73.4054C232 73.6307 231.946 73.841 232.001 73.8714ZM201.765 74.4929C201.807 74.4712 201.814 74.3986 201.78 74.3317C201.746 74.265 201.683 74.2278 201.641 74.2496C201.599 74.2713 201.593 74.3439 201.627 74.4108C201.661 74.4775 201.724 74.5147 201.765 74.4929ZM197.508 75.6953C197.388 76.1931 197.416 76.5761 197.594 76.8439C197.742 77.0679 197.836 77.0471 197.878 76.7814L197.999 76.0048C198.017 75.8977 197.984 75.8093 197.901 75.74C197.756 75.6209 197.77 75.3987 197.946 75.0735C197.956 75.055 197.962 75.0342 197.962 75.0128C197.962 74.9458 197.907 74.8908 197.84 74.8908C197.821 74.8908 197.803 74.8952 197.786 74.9039L197.127 75.2222C196.951 75.3056 196.954 75.371 197.136 75.4186L197.446 75.496C197.515 75.5138 197.536 75.5802 197.508 75.6953ZM171.346 75.2282C171.346 75.1336 171.269 75.0556 171.175 75.0556C171.081 75.0556 171.004 75.1336 171.004 75.2282C171.004 75.3228 171.081 75.4008 171.175 75.4008C171.269 75.4008 171.346 75.3228 171.346 75.2282ZM216.95 76.0316L216.752 75.9334C216.657 75.8858 216.583 75.9185 216.53 76.0316C216.481 76.1348 216.479 76.2616 216.524 76.4124C216.554 76.5157 216.517 76.585 216.415 76.6207C216.302 76.6603 216.132 76.6406 215.903 76.5612C215.881 76.5538 215.858 76.5499 215.834 76.5499C215.716 76.5499 215.618 76.6478 215.618 76.7671C215.618 76.7891 215.622 76.8108 215.628 76.832L215.696 77.0402C215.726 77.1375 215.738 77.2366 215.732 77.3378L215.714 77.6294C215.702 77.7921 215.731 77.7969 215.8 77.6443C215.892 77.4381 216.103 77.2277 216.432 77.0135C216.517 76.9578 216.609 76.9352 216.707 76.945C217.076 76.9748 217.272 76.8439 217.296 76.5523C217.307 76.4044 217.431 76.2889 217.579 76.2889C217.637 76.2889 217.694 76.3071 217.742 76.341L218.712 77.0254C218.735 77.0414 218.762 77.0501 218.79 77.0501C218.858 77.0501 218.916 77.0004 218.928 76.9331L219.058 76.1119C219.075 75.9908 219.024 75.9384 218.904 75.9542L218.372 76.0286C218.343 76.0325 218.314 76.025 218.289 76.0078L217.373 75.3591C217.27 75.2877 217.203 75.3124 217.171 75.4335C217.146 75.5347 217.138 75.6843 217.148 75.8828C217.158 76.0515 217.092 76.1009 216.95 76.0316ZM194.921 75.5793C194.726 75.6129 194.671 75.6944 194.756 75.8233C194.797 75.8849 194.853 75.9057 194.924 75.8858C194.962 75.8759 194.996 75.8521 195.028 75.8143C195.097 75.731 195.099 75.6626 195.034 75.609C195.002 75.5826 194.961 75.5716 194.921 75.5793ZM215.256 75.7894C215.291 75.8099 215.346 75.7801 215.379 75.7236C215.411 75.6671 215.409 75.6037 215.374 75.5835C215.339 75.5629 215.283 75.5927 215.251 75.6492C215.218 75.7057 215.221 75.7691 215.256 75.7894ZM214.794 76.1476C214.704 76.1536 214.628 76.214 214.567 76.3291C214.51 76.4362 214.54 76.5047 214.658 76.5344C214.857 76.5859 214.989 76.5871 215.052 76.5374C215.14 76.4698 215.153 76.3895 215.09 76.2964C215.017 76.1893 214.919 76.1396 214.794 76.1476ZM198.756 77.1087C198.76 77.109 198.764 77.1093 198.768 77.1093C198.854 77.1093 198.925 77.0379 198.925 76.9516C198.925 76.9361 198.923 76.9209 198.918 76.9063C198.841 76.6386 198.794 76.4996 198.776 76.4898C198.753 76.4767 198.727 76.4681 198.701 76.4648C198.564 76.4472 198.434 76.571 198.413 76.7394C198.409 76.7713 198.409 76.8037 198.413 76.8349C198.434 76.9977 198.549 77.0887 198.756 77.1087ZM218.132 76.8843C218.069 76.8076 217.82 76.909 217.58 77.1087C217.34 77.3083 217.194 77.5359 217.257 77.6127C217.32 77.6895 217.57 77.588 217.81 77.3884C218.05 77.1887 218.195 76.9611 218.132 76.8843ZM209.041 78.0102C209.589 77.9329 210.069 77.8436 210.481 77.7424C210.562 77.7207 210.611 77.6779 210.629 77.6145C210.63 77.6115 210.63 77.6083 210.631 77.605C210.639 77.5535 210.605 77.5044 210.555 77.4964C210.552 77.4961 210.549 77.4958 210.546 77.4955C207.826 77.3408 205.132 77.4619 202.463 77.8585C200.892 78.0906 199.637 78.6389 198.697 79.5039C198.622 79.5715 198.585 79.6557 198.587 79.7568C198.591 79.9196 198.708 80.0047 198.939 80.0127C198.982 80.0127 199.025 80.0077 199.066 79.9978C202.354 79.137 205.679 78.4744 209.041 78.0102ZM231.416 78.4208C231.463 78.3938 231.486 78.3363 231.469 78.284C231.416 78.1293 231.359 78.0171 231.3 77.9478C231.22 77.8525 231.153 77.8615 231.102 77.9745L230.987 78.2245C230.932 78.3456 230.968 78.4217 231.096 78.4536C231.217 78.4812 231.323 78.4705 231.416 78.4208ZM231.445 79.1977C231.448 79.0933 231.294 79.0031 231.104 78.9981C230.915 78.993 230.756 79.0748 230.753 79.1793C230.751 79.2837 230.905 79.3739 231.094 79.3789C231.284 79.384 231.442 79.3022 231.445 79.1977ZM192.488 83.735C192.452 83.7469 192.427 83.7814 192.427 83.8198C192.427 83.8487 192.441 83.876 192.464 83.8927C193.018 84.2855 193.609 84.6446 194.238 84.9698C194.759 85.2397 195.393 85.4837 196.142 85.7018C197.289 86.0389 198.632 86.3126 200.172 86.523C201.311 86.6798 202.455 86.6578 203.604 86.4575C205.364 86.152 206.489 85.8973 206.978 85.6929C207.705 85.3873 208.509 84.949 209.39 84.3777C211.298 83.1438 213.036 81.6126 214.605 79.7836C214.846 79.5 214.782 79.37 214.413 79.3938C209.279 79.719 204.202 80.5641 199.181 81.9289C196.97 82.532 195.855 82.8355 195.835 82.8394C194.599 83.117 193.483 83.4157 192.488 83.735ZM230.562 80.1996C230.595 80.1915 230.609 80.1288 230.592 80.0606C230.576 79.9922 230.535 79.9428 230.502 79.9508C230.469 79.9589 230.455 80.0216 230.471 80.0898C230.488 80.1582 230.528 80.2076 230.562 80.1996ZM230.36 82.1015C230.439 81.7525 230.465 81.4418 230.437 81.1702C230.431 81.108 230.379 81.0604 230.316 81.0604C230.278 81.0604 230.241 81.0791 230.218 81.1107C230.019 81.3785 230.027 81.7138 230.242 82.1164C230.295 82.2175 230.334 82.2125 230.36 82.1015ZM229.073 84.2313C229.155 84.2968 229.414 84.1063 229.645 83.8097C229.876 83.513 229.998 83.2149 229.915 83.1494C229.832 83.084 229.574 83.2744 229.343 83.5711C229.112 83.8677 228.99 84.1658 229.073 84.2313ZM212.24 83.6725C212.142 83.7439 212.095 83.8085 212.101 83.8659C212.102 83.8719 212.103 83.8775 212.105 83.8832C212.121 83.9394 212.182 83.9719 212.24 83.9549C212.245 83.9534 212.25 83.9516 212.255 83.9492C212.365 83.8936 212.417 83.8293 212.412 83.7558C212.408 83.6984 212.36 83.6529 212.302 83.6529C212.28 83.6529 212.258 83.6597 212.24 83.6725ZM177.277 90.1739C177.28 90.1775 177.285 90.1795 177.29 90.1795C177.298 90.1795 177.304 90.1748 177.307 90.1679C177.324 90.1284 177.316 90.0927 177.28 90.0608C177.274 90.0558 177.267 90.0531 177.259 90.0531C177.241 90.0531 177.227 90.068 177.227 90.0858C177.227 90.0873 177.227 90.0891 177.227 90.0906C177.231 90.1105 177.248 90.1382 177.277 90.1739ZM180.334 93.31C180.287 93.3195 180.253 93.3612 180.253 93.4091C180.253 93.4243 180.257 93.4391 180.263 93.4528C180.31 93.56 180.373 93.6046 180.452 93.5867C180.46 93.5852 180.467 93.5832 180.474 93.5802C180.529 93.5567 180.555 93.4903 180.53 93.4332C180.528 93.4266 180.524 93.4201 180.52 93.4142C180.465 93.3329 180.403 93.2981 180.334 93.31ZM214.605 99.6656C214.661 99.7212 214.726 99.6983 214.8 99.5971C215.171 99.1092 215.363 98.872 215.377 98.886C215.393 98.9018 215.157 99.0952 214.67 99.4662C214.572 99.5436 214.55 99.6099 214.605 99.6656ZM214.112 99.8031C214.102 99.7537 213.997 99.7343 213.879 99.7599C213.762 99.7858 213.674 99.8474 213.685 99.8971C213.696 99.9465 213.801 99.9658 213.918 99.9402C214.036 99.9143 214.123 99.8527 214.112 99.8031ZM212.814 100.293C212.861 100.315 212.896 100.312 212.917 100.284C213.002 100.173 212.976 100.132 212.84 100.16C212.836 100.16 212.82 100.18 212.793 100.222C212.771 100.254 212.778 100.278 212.814 100.293ZM195.294 101.62C195.295 101.626 195.296 101.632 195.299 101.638C195.313 101.669 195.351 101.682 195.384 101.667C195.388 101.665 195.393 101.662 195.397 101.659C195.435 101.629 195.437 101.594 195.403 101.552C195.379 101.526 195.355 101.515 195.329 101.519C195.294 101.521 195.282 101.555 195.294 101.62Z" fill="black"/>
<path d="M248.757 48.8808C248.871 48.8439 248.989 48.8252 249.108 48.8252C249.601 48.8252 250.04 49.1468 250.191 49.6188L251.377 53.2845C252.754 57.5519 250.358 62.218 246.069 63.6206C246.068 63.6209 246.068 63.6209 246.067 63.6212L245.145 63.9218C240.855 65.3238 236.193 62.9666 234.815 58.6998L233.632 55.0341C233.595 54.9189 233.576 54.7987 233.576 54.6776C233.576 54.1825 233.894 53.7409 234.362 53.588L248.757 48.8808ZM248.423 51.3505L236.059 55.3435C235.975 55.3718 235.929 55.464 235.956 55.5488L236.728 57.9708C237.748 61.1629 241.257 62.9262 244.503 61.8776L245.337 61.6098C248.584 60.5604 250.418 57.069 249.399 53.8751C249.399 53.8745 249.399 53.8742 249.399 53.8736L248.627 51.4546C248.599 51.3701 248.508 51.3231 248.423 51.3505Z" fill="black"/>
<path d="M151.331 60.2774C150.872 60.1235 150.561 59.6885 150.561 59.2017C150.561 59.08 150.58 58.9589 150.618 58.8432L151.828 55.1834L151.828 55.1822C153.236 50.9231 157.912 48.596 162.187 50.0269L163.13 50.3423C167.405 51.7735 169.764 56.4557 168.357 60.7147L167.148 64.3775C166.995 64.8393 166.563 65.1529 166.079 65.1529C165.958 65.1529 165.838 65.1333 165.723 65.0946L151.331 60.2774ZM153.099 58.5427L165.365 62.625C165.468 62.658 165.58 62.6003 165.614 62.497L166.406 60.0929C166.406 60.0923 166.406 60.092 166.407 60.0914C167.449 56.9193 165.627 53.4172 162.37 52.3329L161.601 52.0767C158.344 50.9928 154.807 52.7108 153.764 55.8826L152.972 58.2898C152.965 58.31 152.961 58.3314 152.961 58.3528C152.961 58.4391 153.017 58.5162 153.099 58.5427Z" fill="black"/>
<path d="M165.924 70.9042C165.924 70.9973 165.848 71.0738 165.756 71.0738H149.628C148.863 71.0738 148.233 70.4573 148.233 69.7081V69.6724C148.233 68.9232 148.863 68.3066 149.628 68.3066H165.756C165.848 68.3066 165.924 68.3831 165.924 68.4762V70.9042Z" fill="black"/>
<path d="M238.452 68.4257C238.452 68.3605 238.506 68.3066 238.57 68.3066H254.739C255.51 68.3066 256.144 68.9163 256.144 69.6575V69.723C256.144 70.4641 255.51 71.0738 254.739 71.0738H238.57C238.506 71.0738 238.452 71.02 238.452 70.9548V68.4257Z" fill="black"/>
<path d="M198.743 72.2237C198.749 72.1681 198.731 72.0877 198.687 71.9827C198.648 71.8914 198.653 71.8033 198.702 71.7179C198.87 71.4224 198.903 71.1517 198.803 70.9056C198.793 70.8827 198.789 70.8583 198.789 70.8333C198.789 70.7274 198.875 70.6399 198.981 70.6399C198.994 70.6399 199.006 70.6414 199.018 70.6438L199.648 70.7717C199.757 70.7934 199.797 70.8589 199.769 70.9681C199.761 70.9999 199.745 71.0267 199.719 71.0484C199.695 71.0663 199.658 71.0782 199.607 71.0841C199.461 71.096 199.334 71.105 199.225 71.1109C199.117 71.1169 199.048 71.1725 199.018 71.2775C198.876 71.7694 198.892 72.1782 199.066 72.5034C199.115 72.5966 199.104 72.6828 199.033 72.7623C198.923 72.8813 198.74 72.909 198.486 72.8456C198.442 72.8343 198.405 72.801 198.389 72.7563C198.337 72.6156 198.408 72.5064 198.601 72.429C198.681 72.396 198.736 72.3163 198.743 72.2237Z" fill="black"/>
<path d="M190.426 72.748C191.023 72.2795 191.337 71.6797 191.128 71.4082C190.918 71.1367 190.264 71.2965 189.667 71.765C189.07 72.2335 188.755 72.8333 188.965 73.1048C189.175 73.3763 189.829 73.2165 190.426 72.748Z" fill="black"/>
<path d="M197.985 72.2727C198.136 72.3059 198.275 72.2556 198.294 72.1605C198.314 72.0654 198.206 71.9614 198.055 71.9282C197.903 71.895 197.765 71.9453 197.745 72.0404C197.726 72.1356 197.833 72.2396 197.985 72.2727Z" fill="black"/>
<path d="M195.118 73.0992C195.159 73.3853 195.357 73.5915 195.558 73.5596C195.76 73.5277 195.89 73.2698 195.848 72.9837C195.807 72.6975 195.609 72.4914 195.408 72.5233C195.206 72.5552 195.076 72.813 195.118 73.0992Z" fill="black"/>
<path d="M166.061 75.4603C166.061 75.5061 166.024 75.5436 165.978 75.5436H149.697C148.901 75.5436 148.245 74.9512 148.245 74.2315V74.0827C148.245 73.3629 148.901 72.7705 149.697 72.7705H165.978C166.024 72.7705 166.061 72.808 166.061 72.8538V75.4603Z" fill="black"/>
<path d="M238.306 72.8479C238.306 72.8053 238.341 72.7705 238.383 72.7705H254.697C255.479 72.7705 256.122 73.3602 256.122 74.0767V74.2374C256.122 74.9539 255.479 75.5436 254.697 75.5436H238.383C238.341 75.5436 238.306 75.5088 238.306 75.4663V72.8479Z" fill="black"/>
<path d="M197.488 73.9734C197.484 73.9696 197.425 73.8727 197.312 73.6832C197.257 73.5905 197.265 73.5035 197.335 73.4226C197.39 73.3554 197.464 73.3308 197.555 73.3486C197.661 73.3684 197.716 73.4247 197.72 73.5174L197.728 73.849C197.736 74.0779 197.656 74.1194 197.488 73.9734Z" fill="black"/>
<path d="M199.494 73.692C199.606 73.7363 199.72 73.7115 199.748 73.6368C199.776 73.562 199.708 73.4655 199.596 73.4212C199.484 73.377 199.37 73.4017 199.342 73.4764C199.314 73.5512 199.382 73.6477 199.494 73.692Z" fill="black"/>
<path d="M198.574 73.9292C198.657 73.9976 198.761 74.0074 198.807 73.9513C198.853 73.8951 198.823 73.7941 198.74 73.7258C198.658 73.6575 198.553 73.6476 198.508 73.7038C198.462 73.7599 198.492 73.8609 198.574 73.9292Z" fill="black"/>
<path d="M166.404 77.207L166.986 79.6558C166.987 79.6612 166.988 79.6665 166.989 79.6722C166.998 79.7516 166.942 79.8245 166.865 79.8334C166.859 79.834 166.853 79.8343 166.847 79.8343L150.513 79.8581C149.62 79.8602 149.162 79.4088 149.138 78.5043C149.136 78.4784 149.135 78.4606 149.135 78.4507C149.141 77.5403 149.582 77.085 150.457 77.085L166.247 77.082C166.321 77.0814 166.386 77.1335 166.404 77.207Z" fill="black"/>
<path d="M237.382 79.6578L237.964 77.209C237.982 77.1356 238.047 77.0835 238.121 77.0841L253.912 77.0781C254.787 77.0781 255.227 77.5334 255.233 78.4439C255.233 78.4537 255.232 78.4715 255.23 78.4974C255.207 79.402 254.748 79.8533 253.855 79.8512L237.521 79.8364C237.515 79.8364 237.509 79.8361 237.504 79.8355C237.426 79.8266 237.37 79.7537 237.379 79.6742C237.38 79.6686 237.381 79.6632 237.382 79.6578Z" fill="black"/>
<path d="M242.121 91.1828C243.554 91.026 245.576 90.7731 248.188 90.4241C248.334 90.4041 248.342 90.3586 248.212 90.2872L237.61 84.488C237.202 84.2628 237.021 83.7644 237.187 83.3276C237.315 82.9884 237.4 82.8018 237.441 82.7682C237.853 82.421 238.286 82.3704 238.739 82.6165C242.139 84.4592 246.471 86.8229 251.736 89.707C252.209 89.9629 252.717 90.3348 252.67 90.9061C252.642 91.2512 252.502 91.5199 252.25 91.7124C252.122 91.8115 251.856 91.8889 251.452 91.9445C247.305 92.506 244.267 92.8928 242.337 93.1049C240.904 93.2635 238.883 93.5176 236.273 93.8667C236.126 93.8866 236.117 93.9321 236.247 94.0035L246.849 99.8027C247.257 100.027 247.44 100.526 247.274 100.963C247.146 101.302 247.061 101.489 247.017 101.522C246.607 101.87 246.175 101.92 245.719 101.674C242.319 99.8315 237.987 97.4678 232.723 94.5837C232.25 94.3278 231.741 93.9559 231.788 93.3846C231.816 93.0395 231.956 92.7708 232.208 92.5783C232.336 92.4792 232.602 92.4027 233.007 92.3492C237.154 91.7877 240.192 91.3991 242.121 91.1828Z" fill="black"/>
<path d="M162.694 96.9079C162.78 96.8588 162.81 96.7475 162.762 96.6609L161.431 94.2627C161.098 93.6637 161.232 93.2025 161.834 92.8791C161.928 92.8294 162.002 92.7928 162.055 92.769C162.52 92.5586 162.877 92.6776 163.125 93.126L165.186 96.8335L165.187 96.8344C165.445 97.3003 165.276 97.8987 164.812 98.1599L164.811 98.1605L159.885 100.934C159.674 101.051 159.424 101.073 159.196 100.993C158.463 100.737 157.768 100.363 157.109 99.8714C153.493 97.1697 153.062 92.1382 155.652 88.6063C157.783 85.7023 161.414 84.1729 164.929 84.7323C168.917 85.3661 171.962 89.127 171.543 93.2837C171.492 93.7955 171.38 94.7298 170.889 95.0065C170.609 95.1613 170.418 95.2347 170.316 95.2267C169.319 95.1375 169.198 94.4472 169.349 93.5694C169.538 92.4723 169.525 91.6273 169.31 91.0343C168.556 88.9396 167.259 87.6164 165.423 87.065C162.425 86.1635 159.202 87.3775 157.372 89.8947C156.131 91.6056 155.725 93.9026 156.601 95.8724C157.141 97.0885 158.034 98.0275 159.282 98.6901C159.36 98.7312 159.454 98.73 159.533 98.6872L162.694 96.9079Z" fill="black"/>
<path d="M168.86 104.343C168.84 104.324 168.813 104.313 168.786 104.313C168.754 104.313 168.724 104.327 168.703 104.351L164.99 108.452C164.568 108.916 164.105 108.963 163.6 108.591C163.569 108.568 163.549 108.552 163.541 108.544C162.958 108.028 162.917 107.487 163.42 106.919C166.71 103.224 170.06 99.4777 173.472 95.681C174.012 95.082 174.64 95.1017 175.355 95.7405C176.427 96.6965 177.348 97.5534 178.116 98.3113C179.494 99.666 180.022 101.225 179.701 102.989C179.16 105.97 176.218 108.237 173.238 107.44C173.224 107.436 173.209 107.434 173.194 107.434C173.114 107.434 173.044 107.492 173.028 107.571L171.787 113.688C171.662 114.305 171.289 114.652 170.666 114.73C170.603 114.738 170.567 114.74 170.557 114.736C169.816 114.468 169.506 114.031 169.628 113.424L171.03 106.512C171.05 106.418 171.019 106.322 170.95 106.259L168.86 104.343ZM174.338 98.0375L170.335 102.498C170.258 102.585 170.265 102.719 170.35 102.798L172.28 104.557L172.281 104.558C173.575 105.734 175.59 105.644 176.745 104.357L176.824 104.268C177.979 102.982 177.865 100.956 176.571 99.7791C176.571 99.7788 176.57 99.7782 176.57 99.7782L174.637 98.0227C174.55 97.945 174.416 97.9519 174.338 98.0375Z" fill="black"/>
<path d="M236.385 107.578C234.992 108.869 234.105 109.698 233.724 110.065C233.646 110.14 233.621 110.257 233.662 110.36L234.806 113.21C235.055 113.825 234.896 114.305 234.33 114.65C234.228 114.714 234.17 114.746 234.156 114.748C233.456 114.853 232.988 114.602 232.752 113.993C229.677 106.06 227.726 100.918 226.898 98.565C226.768 98.1901 226.866 97.8509 227.193 97.5474C227.523 97.2418 227.867 97.1704 228.225 97.3331C230.49 98.3528 235.425 100.726 243.031 104.453C243.617 104.739 243.829 105.229 243.667 105.923C243.663 105.935 243.625 105.991 243.554 106.09C243.168 106.629 242.68 106.75 242.091 106.45L239.359 105.072C239.262 105.023 239.144 105.037 239.064 105.108C238.67 105.463 237.777 106.286 236.385 107.578ZM232.775 108.077C232.792 108.117 232.831 108.143 232.873 108.143C232.899 108.143 232.924 108.133 232.944 108.116L237.21 104.183C237.232 104.162 237.245 104.133 237.245 104.103C237.245 104.062 237.222 104.025 237.186 104.007L229.97 100.389C229.954 100.381 229.937 100.376 229.92 100.376C229.861 100.376 229.813 100.425 229.813 100.484C229.813 100.498 229.816 100.512 229.822 100.526L232.775 108.077Z" fill="black"/>
<path d="M182.932 119.399C184.7 120.107 186.557 119.896 187.745 118.777C188.215 118.337 188.805 117.195 189.516 115.352C190.504 112.8 191.535 110.192 192.609 107.53C192.869 106.885 193.327 106.685 193.983 106.929C194.005 106.937 194.019 106.942 194.025 106.944C194.673 107.224 194.875 107.682 194.631 108.319C194.146 109.576 193.164 112.089 191.683 115.858C190.81 118.082 190.079 119.512 189.49 120.149C187.677 122.116 184.765 122.401 182.161 121.36C179.553 120.319 177.628 118.102 177.646 115.421C177.652 114.55 178.095 113.005 178.974 110.785C180.462 107.018 181.458 104.51 181.963 103.26C182.219 102.627 182.678 102.433 183.34 102.677C183.346 102.681 183.36 102.687 183.382 102.695C184.024 102.971 184.221 103.433 183.973 104.081C182.94 106.761 181.914 109.371 180.895 111.91C180.158 113.743 179.81 114.981 179.852 115.623C179.955 117.263 181.164 118.694 182.932 119.399Z" fill="black"/>
<path d="M217.08 109.127C217.722 110.403 218.826 110.883 220.391 110.567C222.044 110.234 224.409 109.029 226.514 109.939C227.424 110.334 228.16 110.961 228.719 111.82C231.096 115.468 228.285 119.029 224.707 120.095C222.792 120.666 220.131 120.467 218.762 118.875C218.548 118.628 218.505 118.273 218.655 117.982C218.898 117.518 219.229 117.286 219.649 117.286C219.858 117.288 220.197 117.423 220.666 117.69C222.018 118.462 223.457 118.475 224.982 117.729C226.703 116.887 228.072 115.236 227.099 113.361C226.401 112.019 224.84 111.543 223.389 111.921C221.869 112.316 221.012 112.54 220.817 112.594C220.03 112.804 219.108 112.78 218.049 112.522C216.199 112.073 214.818 110.389 214.706 108.47C214.537 105.643 217.479 103.411 219.933 102.843C220.79 102.647 221.641 102.671 222.487 102.917C223.406 103.188 224.891 103.792 225.071 104.741C225.234 105.583 224.211 106.039 223.584 105.717C222.866 105.348 222.422 105.13 222.251 105.063C220.329 104.316 218.085 105.643 217.124 107.163C216.808 107.663 216.781 108.532 217.08 109.127Z" fill="black"/>
<path d="M204.163 111.844C204.37 113.258 205.265 114.066 206.848 114.266C208.521 114.48 211.143 114.094 212.852 115.632C213.591 116.296 214.091 117.125 214.351 118.119C215.451 122.338 211.661 124.817 207.933 124.683C205.934 124.612 203.474 123.57 202.679 121.624C202.555 121.322 202.628 120.972 202.862 120.744C203.239 120.381 203.626 120.267 204.024 120.401C204.221 120.469 204.5 120.705 204.861 121.11C205.898 122.274 207.258 122.746 208.941 122.526C210.839 122.279 212.657 121.151 212.326 119.063C212.089 117.566 210.759 116.617 209.263 116.51C207.698 116.399 206.814 116.337 206.611 116.325C205.799 116.274 204.932 115.956 204.009 115.373C202.398 114.355 201.621 112.317 202.12 110.46C202.854 107.726 206.345 106.551 208.852 106.798C209.727 106.885 210.528 107.181 211.253 107.684C212.039 108.235 213.254 109.282 213.127 110.24C213.015 111.091 211.9 111.195 211.407 110.69C210.843 110.11 210.491 109.761 210.351 109.642C208.763 108.321 206.218 108.86 204.825 109.993C204.367 110.368 204.069 111.184 204.163 111.844Z" fill="black"/>
<path fill-rule="evenodd" clip-rule="evenodd" d="M199.503 108.386L198.032 123.606C197.975 124.203 197.435 124.637 196.829 124.574L196.793 124.571C196.186 124.508 195.741 123.971 195.799 123.373L197.269 108.153C197.327 107.556 197.866 107.122 198.472 107.185L198.508 107.188C199.115 107.251 199.56 107.788 199.503 108.386Z" fill="black"/>
</svg>
