<svg width="69" height="68" viewBox="0 0 69 68" fill="none" xmlns="http://www.w3.org/2000/svg">
<g id="ic:baseline-tiktok">
<path id="Vector" d="M47.7259 16.49C45.7611 14.2787 44.6781 11.4393 44.6784 8.5H35.7947V43.6333C35.7276 45.535 34.9136 47.3367 33.5243 48.6582C32.1351 49.9798 30.2793 50.7178 28.3484 50.7167C24.2659 50.7167 20.8734 47.43 20.8734 43.35C20.8734 38.4767 25.6459 34.8217 30.5622 36.3233V27.37C20.6434 26.0667 11.9609 33.66 11.9609 43.35C11.9609 52.785 19.8959 59.5 28.3197 59.5C37.3472 59.5 44.6784 52.275 44.6784 43.35V25.5283C48.2808 28.0779 52.6059 29.4458 57.0409 29.4383V20.6833C57.0409 20.6833 51.6359 20.9383 47.7259 16.49Z" fill="black"/>
</g>
</svg>
