<svg width="71" height="71" viewBox="0 0 71 71" fill="none" xmlns="http://www.w3.org/2000/svg">
<g id="ri:whatsapp-fill">
<path id="Vector" d="M35.5033 5.91663C51.8422 5.91663 65.0866 19.1611 65.0866 35.5C65.0866 51.8388 51.8422 65.0833 35.5033 65.0833C30.2752 65.0923 25.139 63.7087 20.6229 61.0747L5.9318 65.0833L9.93147 50.3863C7.29547 45.8687 5.91081 40.7303 5.91997 35.5C5.91997 19.1611 19.1644 5.91663 35.5033 5.91663ZM25.4213 21.5958L24.8296 21.6195C24.4471 21.6458 24.0733 21.7463 23.7291 21.9153C23.4084 22.0973 23.1155 22.3244 22.8594 22.5898C22.5044 22.9241 22.3032 23.214 22.0873 23.495C20.993 24.9177 20.4039 26.6643 20.4128 28.4591C20.4188 29.9087 20.7974 31.3198 21.3891 32.6392C22.5991 35.3077 24.59 38.1329 27.217 40.751C27.8501 41.3811 28.4713 42.0142 29.1399 42.6029C32.4042 45.4767 36.294 47.5492 40.4999 48.6557L42.1803 48.913C42.7276 48.9426 43.2748 48.9012 43.8251 48.8746C44.6865 48.8292 45.5276 48.5959 46.2894 48.1912C46.6765 47.9911 47.0545 47.7739 47.4224 47.5404C47.4224 47.5404 47.5477 47.4556 47.7922 47.2741C48.1916 46.9783 48.4371 46.7682 48.7685 46.4221C49.017 46.1657 49.224 45.8679 49.3897 45.5287C49.6205 45.0465 49.8512 44.1265 49.9459 43.3602C50.0169 42.7745 49.9962 42.455 49.9873 42.2568C49.9755 41.9403 49.7122 41.6119 49.4252 41.4728L47.7035 40.7007C47.7035 40.7007 45.1297 39.5795 43.5559 38.8636C43.3911 38.7919 43.2147 38.7508 43.0352 38.7423C42.8328 38.7211 42.6282 38.7437 42.4352 38.8085C42.2423 38.8733 42.0655 38.9789 41.917 39.118C41.9022 39.1121 41.704 39.2807 39.5651 41.8722C39.4423 42.0372 39.2732 42.1618 39.0793 42.2303C38.8855 42.2988 38.6756 42.308 38.4764 42.2568C38.2836 42.2054 38.0948 42.1402 37.9114 42.0615C37.5445 41.9077 37.4173 41.8485 37.1659 41.742C35.4674 41.0022 33.8953 40.001 32.5065 38.7748C32.1338 38.4494 31.7876 38.0944 31.4326 37.7512C30.2689 36.6366 29.2546 35.3757 28.4151 34.0001L28.2406 33.719C28.1171 33.5291 28.0159 33.3256 27.9388 33.1126C27.8264 32.6777 28.1193 32.3286 28.1193 32.3286C28.1193 32.3286 28.8382 31.5417 29.1725 31.1157C29.4979 30.7015 29.773 30.2992 29.9505 30.0123C30.2996 29.4502 30.4091 28.8733 30.2256 28.4266C29.3973 26.4031 28.5414 24.3904 27.6578 22.3886C27.4833 21.9922 26.9656 21.7082 26.4952 21.652C26.3354 21.6323 26.1757 21.6165 26.0159 21.6047C25.6187 21.5819 25.2204 21.5858 24.8237 21.6165L25.4213 21.5958Z" fill="black"/>
</g>
</svg>
