<svg width="85" height="86" viewBox="0 0 85 86" fill="none" xmlns="http://www.w3.org/2000/svg">
<g id="ri:youtube-fill">
<path id="Vector" d="M43.3648 14.3334C45.2561 14.3441 49.9877 14.3907 55.0169 14.595L56.8019 14.6738C61.8629 14.9139 66.9204 15.3295 69.4315 16.0355C72.7784 16.9886 75.4063 19.7621 76.2952 23.281C77.7119 28.871 77.889 39.7715 77.9102 42.4124L77.9138 42.957V43.5805C77.889 46.2215 77.7119 57.1255 76.2952 62.712C75.3957 66.2415 72.7642 69.0186 69.4315 69.9575C66.9204 70.6634 61.8629 71.079 56.8019 71.3191L55.0169 71.4015C49.9877 71.6022 45.2561 71.6524 43.3648 71.6595L42.5325 71.6631H41.6294C37.6273 71.638 20.8894 71.4553 15.5627 69.9575C12.2194 69.0043 9.58794 66.2308 8.69898 62.712C7.28232 57.122 7.10523 46.2215 7.08398 43.5805V42.4124C7.10523 39.7715 7.28232 28.8674 8.69898 23.281C9.59857 19.7514 12.23 16.9743 15.5663 16.039C20.8894 14.5376 37.6309 14.3549 41.6329 14.3334H43.3648ZM35.4138 30.4584V55.5417L56.6638 43L35.4138 30.4584Z" fill="black"/>
</g>
</svg>
