<svg width="69" height="68" viewBox="0 0 69 68" fill="none" xmlns="http://www.w3.org/2000/svg">
<g id="streamline:instagram-solid">
<path id="Vector" fill-rule="evenodd" clip-rule="evenodd" d="M16.707 3.82263C13.3041 3.82263 10.0405 5.15452 7.63378 7.52543C5.22708 9.89634 3.87435 13.1122 3.87305 16.4658V50.1938C3.87305 53.5482 5.2252 56.7653 7.63204 59.1373C10.0389 61.5092 13.3033 62.8418 16.707 62.8418H50.931C54.334 62.8405 57.5971 61.5074 60.0029 59.1355C62.4086 56.7637 63.7601 53.5474 63.7601 50.1938V16.4658C63.7588 13.113 62.4068 9.89791 60.0011 7.52714C57.5955 5.15637 54.3331 3.82392 50.931 3.82263H16.707ZM54.6226 16.4852C54.6226 17.4514 54.2331 18.3779 53.5399 19.0611C52.8467 19.7443 51.9065 20.1281 50.9261 20.1281C49.9458 20.1281 49.0056 19.7443 48.3123 19.0611C47.6191 18.3779 47.2297 17.4514 47.2297 16.4852C47.2297 15.5191 47.6191 14.5925 48.3123 13.9093C49.0056 13.2261 49.9458 12.8423 50.9261 12.8423C51.9065 12.8423 52.8467 13.2261 53.5399 13.9093C54.2331 14.5925 54.6226 15.5191 54.6226 16.4852ZM33.824 23.2269C31.1051 23.2269 28.4976 24.2913 26.5751 26.186C24.6526 28.0806 23.5725 30.6503 23.5725 33.3298C23.5725 36.0092 24.6526 38.5789 26.5751 40.4736C28.4976 42.3682 31.1051 43.4326 33.824 43.4326C36.5428 43.4326 39.1503 42.3682 41.0728 40.4736C42.9953 38.5789 44.0754 36.0092 44.0754 33.3298C44.0754 30.6503 42.9953 28.0806 41.0728 26.186C39.1503 24.2913 36.5428 23.2269 33.824 23.2269ZM18.639 33.3298C18.639 29.3621 20.2384 25.557 23.0852 22.7515C25.932 19.9459 29.7931 18.3698 33.819 18.3698C37.845 18.3698 41.7061 19.9459 44.5529 22.7515C47.3997 25.557 48.9991 29.3621 48.9991 33.3298C48.9991 37.2974 47.3997 41.1026 44.5529 43.9081C41.7061 46.7136 37.845 48.2898 33.819 48.2898C29.7931 48.2898 25.932 46.7136 23.0852 43.9081C20.2384 41.1026 18.639 37.2974 18.639 33.3298Z" fill="black"/>
</g>
</svg>
