<svg width="57" height="56" viewBox="0 0 57 56" fill="none" xmlns="http://www.w3.org/2000/svg">
<g clip-path="url(#clip0_83_518)">
<path fill-rule="evenodd" clip-rule="evenodd" d="M53.8536 0H3.1464C1.4079 0 0 1.3832 0 3.0912V52.9088C0 54.6168 1.4079 56 3.1464 56H30.4437V34.314H23.0166V25.8636H30.4437V19.628C30.4437 12.3928 34.941 8.456 41.5102 8.456C44.6566 8.456 47.3584 8.6856 48.1479 8.7892V16.3492H43.5936C40.0197 16.3492 39.33 18.018 39.33 20.4652V25.8608H47.8486L46.7371 34.3112H39.3271V56H53.8536C55.5921 56 57 54.6168 57 52.9088V3.0912C57 1.3832 55.5921 0 53.8536 0Z" fill="black"/>
</g>
<defs>
<clipPath id="clip0_83_518">
<rect width="57" height="56" fill="white"/>
</clipPath>
</defs>
</svg>
